<?xml version="1.0" standalone="no"?>
<!DOCTYPE svg PUBLIC "-//W3C//DTD SVG 1.1//EN" "http://www.w3.org/Graphics/SVG/1.1/DTD/svg11.dtd" >
<svg xmlns="http://www.w3.org/2000/svg">
<metadata></metadata>
<defs>
<font id="ikaros_sansregular" horiz-adv-x="1556" >
<font-face units-per-em="2048" ascent="1536" descent="-512" />
<missing-glyph horiz-adv-x="575" />
<glyph horiz-adv-x="0" />
<glyph horiz-adv-x="682" />
<glyph unicode=" "  horiz-adv-x="575" />
<glyph unicode="&#x09;" horiz-adv-x="575" />
<glyph unicode="&#xa0;" horiz-adv-x="575" />
<glyph unicode="!" horiz-adv-x="360" d="M55 117q0 50 35 85.5t86 35.5q50 0 85.5 -36t35.5 -85q0 -51 -35.5 -86t-85.5 -35q-51 0 -86 35t-35 86zM78 336v1094h192v-1094h-192z" />
<glyph unicode="#" horiz-adv-x="1908" d="M68 4l206 352h-196v189h307l203 342h-234v184h344l213 363h238l-217 -363h469l215 363h235l-213 -363h209v-184h-323l-205 -342h252v-189h-363l-211 -352h-227l209 352h-475l-209 -352h-227zM616 545h474l202 342h-471z" />
<glyph unicode="$" horiz-adv-x="1126" d="M102 209l82 139q83 -125 260 -162q53 -12 91 -14h57h14q103 8 173.5 78.5t70.5 171.5q0 98 -63 149.5t-181 73.5q-10 0 -14 2q-11 2 -44 6t-52 9q-13 1 -30 4t-22 4q-151 40 -244.5 131.5t-93.5 232.5q0 152 96.5 265t241.5 133v135h162v-137q88 -14 166 -55t125 -101 l-96 -170q-85 98 -195 131q-14 5 -42 8.5t-38 5.5h-30q-25 0 -52 -10q-67 -20 -109 -77t-42 -128q0 -136 151 -172q24 -12 52 -12q15 -3 33 -4.5t38 -2t27 -1.5q4 -4 12 -4q187 -26 302.5 -135t115.5 -281q0 -113 -55.5 -209.5t-151.5 -154t-211 -60.5v-160h-162v168 q-110 17 -199 70t-143 133zM633 -1280q0 20 18 23v6h11v-9q8 0 16 -8l-6 -10q-3 8 -10 8h-5h-2h-4q-8 -3 -8 -10q0 -10 8 -10h4q2 -2 7 -2q22 -3 22 -23q0 -24 -22 -24v-9h-11v9q-12 3 -18 12l4 8q6 -6 14 -10h6h2h3q14 0 14 14q0 9 -14 12h-3h-4q-1 0 -2 1.5t-2 1.5 q-18 3 -18 20z" />
<glyph unicode="%" d="M76 1122q0 131 91 223.5t220 92.5q127 0 217 -92.5t90 -223.5t-90 -223t-217 -92q-129 0 -220 92t-91 223zM238 1122q0 -63 43 -107t106 -44q60 0 104 44t44 107q0 65 -43.5 109.5t-104.5 44.5q-63 0 -106 -44t-43 -110zM242 16l809 1370h225l-819 -1370h-215zM864 317 q0 129 90 221.5t217 92.5q126 0 217 -92.5t91 -221.5q0 -130 -91 -222.5t-217 -92.5q-127 0 -217 92t-90 223zM1024 317q0 -63 43 -108t104 -45q60 0 103 45t43 108q0 62 -43 106t-103 44q-61 0 -104 -44t-43 -106z" />
<glyph unicode="&#x26;" horiz-adv-x="1513" d="M88 485q0 139 75.5 254.5t198.5 173.5q-64 88 -73 197v8v33q12 119 100.5 202t206.5 83q120 0 208.5 -82.5t100.5 -202.5v-33v-8q-4 -101 -71.5 -181t-163.5 -110l209 -227v88h186v-195q0 -15 -1 -30t-2.5 -33.5t-2.5 -28.5l358 -391h-231l-201 221q-63 -99 -170 -157.5 t-231 -59.5h-2q-100 0 -191.5 38.5t-157.5 103t-105.5 153t-39.5 184.5zM276 485q0 -123 89.5 -210t216.5 -87q91 4 163.5 54t108.5 129l-360 399q-94 -28 -156 -107.5t-62 -177.5zM451 1118q0 -57 41 -104l47 -49h36h25q60 5 101.5 48.5t41.5 104.5q0 31 -6 45 q-14 50 -52 79.5t-89 29.5q-57 0 -98 -38.5t-47 -98.5v-17z" />
<glyph unicode="(" horiz-adv-x="575" d="M76 764q0 272 95 485.5t230 282.5l62 -156q-62 -24 -118 -117t-90 -226.5t-34 -268.5t36.5 -270.5t96 -229t123.5 -112.5l-80 -150q-130 64 -225.5 280t-95.5 482z" />
<glyph unicode=")" horiz-adv-x="563" d="M76 152q64 19 123.5 112.5t96 229t36.5 270.5t-34 268.5t-90 226.5t-118 117l62 156q135 -69 230 -282.5t95 -485.5q0 -266 -95.5 -482t-225.5 -280z" />
<glyph unicode="*" horiz-adv-x="1705" d="M721 1200v64h119l-82 84l47 47l84 -82v119h63v-119l86 82l47 -47l-84 -84h119v-64h-119l84 -86l-47 -47l-86 84v-119h-63v119l-84 -84l-47 47l82 86h-119z" />
<glyph unicode="+" horiz-adv-x="862" d="M84 516v189h244v243h188v-243h246v-189h-246v-246h-188v246h-244z" />
<glyph unicode="," horiz-adv-x="456" d="M53 -131l187 352l116 -67l-186 -353z" />
<glyph unicode="-" horiz-adv-x="851" d="M76 522v180h686v-180h-686z" />
<glyph unicode="." horiz-adv-x="362" d="M76 100q0 43 29.5 73t72.5 30q42 0 72.5 -30.5t30.5 -72.5q0 -41 -31 -71.5t-72 -30.5q-42 0 -72 30t-30 72z" />
<glyph unicode="/" horiz-adv-x="1288" d="M102 -2l859 1436h227l-848 -1436h-238z" />
<glyph unicode="0" horiz-adv-x="1167" d="M80 518v402q0 140 67.5 259t183 188t251.5 69q137 0 253 -69t183 -188t67 -259v-402q0 -140 -67 -259.5t-183 -189t-253 -69.5q-136 0 -251.5 69.5t-183 189t-67.5 259.5zM262 518q0 -136 94.5 -233t225.5 -97q134 0 226.5 96.5t92.5 233.5v402q0 136 -92.5 231.5 t-226.5 95.5q-131 0 -225.5 -96t-94.5 -231v-402z" />
<glyph unicode="1" horiz-adv-x="561" d="M84 1223v200h379v-200v-1219h-187v1219h-192z" />
<glyph unicode="2" horiz-adv-x="1110" d="M102 -2v180l672 639l8 14q43 67 43 152q0 115 -77.5 194.5t-188.5 79.5q-113 0 -190.5 -79.5t-77.5 -194.5v-10h-174v10q0 189 129 322t313 133q183 0 312.5 -133t129.5 -322q0 -79 -24 -152l-8 -20q-18 -57 -68 -119l-543 -514h643v-180h-899z" />
<glyph unicode="3" horiz-adv-x="1038" d="M78 424h182q4 -103 79 -172.5t181 -69.5t183 74.5t77 179.5q0 104 -77 179t-183 75v176h19q72 7 121 63.5t49 131.5q0 80 -55 137t-134 57q-78 0 -134 -57t-56 -137h-172q0 154 106.5 262.5t255.5 108.5q151 0 257 -108.5t106 -262.5q0 -150 -113 -270q89 -58 141 -152 t52 -203q0 -180 -130 -306t-313 -126q-118 0 -218.5 55.5t-160.5 152t-63 212.5z" />
<glyph unicode="4" horiz-adv-x="1040" d="M96 575v189v666h189v-666h473v666h188v-1432h-188v577h-662z" />
<glyph unicode="5" horiz-adv-x="1112" d="M72 500h176q0 -132 90.5 -225t218.5 -93q129 0 220 93t91 225t-91 224.5t-220 92.5q-112 0 -199 -74v-4h-4h-178v70v621h19h163h549v-185h-549v-289q91 45 199 45q132 0 244 -67t177.5 -182.5t65.5 -251.5q0 -134 -65.5 -249t-177.5 -183t-244 -68q-131 0 -243 68 t-177 183t-65 249z" />
<glyph unicode="6" horiz-adv-x="1130" d="M76 510q0 98 33 180h-3l7 8q27 75 75 133l244 422l107 187l206 -4l-247 -426q23 6 71 6q134 0 248 -68t181 -184.5t67 -253.5q0 -210 -146 -359t-350 -149q-134 0 -247.5 68t-179.5 185t-66 255zM256 510q0 -135 92 -229.5t221 -94.5q131 0 223.5 94.5t92.5 229.5 q0 133 -92.5 227t-223.5 94q-77 0 -143 -34t-109 -95l-6 -12h-2q-53 -82 -53 -180z" />
<glyph unicode="7" horiz-adv-x="1298" d="M123 0l741 1251h-741v187h850h35h204l-862 -1438h-227z" />
<glyph unicode="8" horiz-adv-x="1073" d="M92 422q0 15 3 41.5t3 32.5q26 180 189 297q-119 119 -111 266v8v20q0 9 4 21v6v10q25 129 115.5 215t216.5 93q3 0 9.5 2t10.5 2h7h8q5 0 14 -2t14 -2h13v-2q134 -20 222.5 -125t88.5 -246q0 -33 -2 -49v-11q-21 -121 -106 -206q89 -61 140.5 -156.5t51.5 -204.5v-2v-18 v-2q-2 -6 -2 -29q-20 -161 -146 -271t-296 -110q-119 0 -221 56t-162.5 153t-63.5 213zM276 469q-12 -103 54 -186.5t172 -100.5q12 -4 37 -4q102 0 178 68.5t84 165.5q5 100 -58 177.5t-165 94.5q-7 0 -7 4h-14h-14q-99 4 -174.5 -58.5t-92.5 -160.5zM348 1063 q0 -73 45.5 -128t118.5 -65q4 -4 6 -4h39q63 8 110.5 54t57.5 114q0 6 2 14t2 11q0 77 -47.5 132t-120.5 66h-8h-10h-15h-4q-67 -5 -115.5 -50.5t-58.5 -116.5v-3q0 -3 -1 -7t-1 -7v-10z" />
<glyph unicode="9" horiz-adv-x="1179" d="M86 928q0 138 66.5 255t180 185t247.5 68t247.5 -68t179.5 -185t66 -255q0 -101 -33 -183h2l-6 -8q-20 -62 -73 -135l-244 -420l-107 -184l-209 2l248 424q-50 -4 -71 -4q-134 0 -247.5 68t-180 185t-66.5 255zM264 928q0 -135 92.5 -229.5t223.5 -94.5q77 0 142 35 t107 96l9 10h2q53 83 53 183q0 131 -91.5 226t-221.5 95t-223 -95t-93 -226z" />
<glyph unicode=":" horiz-adv-x="344" d="M74 924q0 42 30 72t72 30t72.5 -30t30.5 -72q0 -41 -31 -72t-72 -31t-71.5 31t-30.5 72zM76 100q0 43 29.5 73t72.5 30q42 0 72.5 -30.5t30.5 -72.5q0 -41 -31 -71.5t-72 -30.5q-42 0 -72 30t-30 72z" />
<glyph unicode=";" horiz-adv-x="468" d="M70 63l186 353l117 -68l-187 -352zM92 -1972l10 18l7 -4l-11 -18zM100 -1927q0 6 6 6q5 0 5 -6q0 -4 -5 -4q-6 0 -6 4zM238 936q0 37 22.5 60.5t58.5 23.5q40 0 62 -23t22 -61q0 -39 -22 -62.5t-62 -23.5q-37 0 -59 24t-22 62z" />
<glyph unicode="&#x3c;" horiz-adv-x="888" d="M80 602l158 88l565 340v-180l-414 -248l414 -248v-178l-565 334z" />
<glyph unicode="=" horiz-adv-x="847" d="M76 350v180h686v-180h-686zM76 694v180h686v-180h-686z" />
<glyph unicode="&#x3e;" horiz-adv-x="890" d="M80 176v178l414 248l-414 248v180l565 -340l158 -88l-158 -92z" />
<glyph unicode="?" horiz-adv-x="983" d="M41 969v10q0 187 129 320t311 133q120 0 222 -61t161.5 -165.5t59.5 -226.5q0 -75 -25 -152l-8 -18q-29 -77 -66 -119l-254 -237v-113h-194v45l2 127l29 27l286 274l13 14q41 65 41 152q0 112 -78.5 192t-188.5 80q-107 0 -185.5 -80t-78.5 -192v-10h-176zM362 119 q0 50 35 85.5t84 35.5q53 0 87 -35t34 -86q0 -52 -34 -86.5t-87 -34.5q-50 0 -84.5 35t-34.5 86z" />
<glyph unicode="@" horiz-adv-x="1492" d="M63 719q0 146 54.5 279t146.5 229t220 152.5t268 56.5t267 -56.5t219.5 -152.5t147 -229t54.5 -279q0 -139 -47.5 -264.5t-135.5 -225.5q-8 -10 -38 -41q-52 -38 -119 -38q-107 0 -162 92q-31 45 -31 100l2 49v41q-78 -55 -182 -55q-135 0 -232.5 99t-97.5 237 q0 139 97.5 238.5t232.5 99.5q92 0 182 -54v62h152v-529v-153q0 -27 24 -27q1 0 19 6v4h2q43 46 82 115q59 112 59 244q0 140 -66.5 258t-180.5 186t-248 68t-247.5 -68t-180 -186t-66.5 -258q0 -139 66.5 -257.5t180 -187.5t247.5 -69v-205q-112 0 -217.5 36.5t-190 103 t-148.5 155t-98.5 198t-34.5 226.5zM547 713q0 -77 53 -131t127 -54q69 0 120.5 45t61.5 117v51q-11 68 -62.5 114t-119.5 46q-74 0 -127 -54.5t-53 -133.5z" />
<glyph unicode="A" horiz-adv-x="1404" d="M78 0l620 1440l623 -1440h-223l-97 225h-606l-100 -225h-217zM481 412h434l-217 499z" />
<glyph unicode="B" horiz-adv-x="1116" d="M74 2v1430l487 2q111 -1 204.5 -56.5t147.5 -150t54 -205.5q0 -164 -109 -279q88 -55 139.5 -145.5t51.5 -196.5q0 -108 -53 -199.5t-144.5 -145t-200.5 -54.5h-2h-575zM270 193h383v-11v11q89 0 149 59.5t60 148.5t-62.5 149t-150.5 60h-379v-417zM270 801h287 q91 0 155 65t64 156q0 92 -64 156.5t-155 64.5h-287v-442z" />
<glyph unicode="C" horiz-adv-x="1345" d="M88 717q0 145 57 278t153.5 229t229 153t277.5 57q231 0 412 -129l-91 -189q-135 111 -321 111q-140 0 -258 -67.5t-186 -185t-68 -257.5t68 -258t186 -186t258 -68q186 0 328 117l84 -191q-184 -131 -412 -131q-145 0 -277.5 57t-229 153t-153.5 229t-57 278z" />
<glyph unicode="D" horiz-adv-x="1325" d="M119 0v1432l383 -2q144 -2 275 -60t225 -154t150 -226.5t56 -272.5q0 -144 -56 -276.5t-150 -229t-225 -154t-275 -57.5h-383zM319 205h173q140 0 258 68t186 186t68 258q0 138 -68 255.5t-186 187t-258 69.5h-173v-1024z" />
<glyph unicode="E" horiz-adv-x="1064" d="M104 0v1434h844v-193h-647v-440h514v-191h-514v-420h657v-190h-854z" />
<glyph unicode="F" horiz-adv-x="1056" d="M119 0v1436h839v-197h-647v-448h520v-183h-520v-608h-192z" />
<glyph unicode="G" horiz-adv-x="1474" d="M113 729q0 147 57.5 278.5t155 225t232 148.5t282.5 55q251 0 397 -129l-72 -181q-135 111 -325 111q-141 0 -259 -70.5t-184.5 -187t-66.5 -250.5q0 -143 66.5 -264t184 -192.5t259.5 -71.5q76 0 165 37t142 90v290h-236v183h430v-799h-194v72q-166 -72 -307 -72 q-197 0 -364.5 97.5t-265 265t-97.5 364.5z" />
<glyph unicode="H" horiz-adv-x="1253" d="M98 2v1432h199v-654h653v654h199v-1432h-199v598h-653v-598h-199z" />
<glyph unicode="I" horiz-adv-x="350" d="M80 -2v1436h199v-1436h-199z" />
<glyph unicode="J" horiz-adv-x="1107" d="M72 197l106 161q63 -77 130.5 -119t158.5 -42q136 0 228.5 86t92.5 219v930h197v-967q-8 -124 -76 -230.5t-181 -170.5t-245 -64h-16q-125 0 -226.5 50t-168.5 147z" />
<glyph unicode="K" horiz-adv-x="1214" d="M125 0v1432h186v-1061l582 1061h229l-473 -840l465 -592h-233l-338 393l-232 -393h-186z" />
<glyph unicode="L" horiz-adv-x="983" d="M94 0v1434h195v-1239h602v-195h-797z" />
<glyph unicode="M" horiz-adv-x="1472" d="M98 2v1432h236l391 -930l408 930h233v-1432h-197v985l-444 -987l-430 987v-985h-197z" />
<glyph unicode="N" horiz-adv-x="1226" d="M94 0v1434h228l630 -1110v1110h189v-1434h-226l-628 1083v-1083h-193z" />
<glyph unicode="O" d="M86 721q0 145 53.5 277t144.5 228t217 153t265 57q195 0 355.5 -96.5t251.5 -260.5t91 -358q0 -195 -91 -360t-251.5 -262t-355.5 -97q-111 0 -215 36.5t-187.5 103t-146.5 155t-97 198t-34 226.5zM283 721q0 -142 64.5 -262.5t175.5 -190t243 -69.5q141 0 256.5 70 t180.5 189.5t65 262.5q0 141 -65 259t-180.5 187.5t-256.5 69.5q-132 0 -243 -69t-175.5 -188t-64.5 -259z" />
<glyph unicode="P" horiz-adv-x="1134" d="M102 -2v1432h428q140 0 256 -69.5t181 -184.5t65 -248t-63 -247t-170 -181q-65 -41 -139.5 -65.5t-129.5 -24.5h-231v-412h-197zM299 608h231q123 0 213.5 93.5t90.5 226.5q0 123 -91 214t-213 91h-231v-625z" />
<glyph unicode="Q" horiz-adv-x="1624" d="M113 719q0 144 56.5 277t150.5 228.5t222.5 152.5t266.5 57q194 0 354.5 -96.5t252 -260.5t91.5 -358q0 -249 -180 -465l162 -197l-143 -125l-160 181q-165 -109 -377 -109q-138 0 -266.5 57t-222.5 152.5t-150.5 228.5t-56.5 277zM309 719q0 -140 68.5 -255.5t183 -180 t248.5 -64.5q153 0 233 51l-159 199l159 125l162 -199q107 131 107 324q0 142 -65 260.5t-180.5 188t-256.5 69.5q-133 0 -248 -69t-183.5 -188.5t-68.5 -260.5z" />
<glyph unicode="R" horiz-adv-x="1290" d="M223 0l2 1434h320h90q128 -4 236 -70t170.5 -175.5t62.5 -236.5q0 -121 -57 -227t-158 -174l268 -547l-221 -2l-2 4l-242 469q-36 -4 -57 -4l-4 -2h-215v-469h-193zM416 664h207q119 0 203.5 84t84.5 204q0 118 -84.5 202.5t-203.5 84.5h-207v-575z" />
<glyph unicode="S" horiz-adv-x="1126" d="M102 209v4l82 139q49 -72 140.5 -119.5t210.5 -54.5h53q107 0 182.5 70.5t75.5 175.5q0 99 -68.5 150.5t-189.5 70.5q-18 5 -52 8.5t-44 5.5q-107 21 -191 65.5t-139.5 124.5t-55.5 183q0 161 114 278t272 117h30q107 0 210 -43t159 -114l-92 -170q-63 70 -126.5 104.5 t-150.5 38.5h-30q-81 0 -140 -63t-59 -148q0 -80 52 -126t147 -58q29 -3 62 -6t38 -4q192 -26 310 -132.5t118 -281.5q0 -177 -125.5 -296t-306.5 -124h-56q-131 0 -247 56.5t-183 148.5z" />
<glyph unicode="T" horiz-adv-x="1265" d="M61 1247v189h1151v-191l-481 2l4 -1249h-203l3 1249h-474z" />
<glyph unicode="U" horiz-adv-x="1245" d="M104 504v114v818h197v-693v-229q0 -130 92.5 -222.5t222.5 -92.5q131 0 223.5 92.5t92.5 222.5v922h198v-693v-239q-3 -138 -71.5 -253t-186 -182t-256.5 -67q-133 0 -245.5 61.5t-182.5 167.5q-9 14 -23 38t-37.5 95.5t-23.5 139.5z" />
<glyph unicode="V" horiz-adv-x="1421" d="M86 1438h225l389 -916l412 916h225l-637 -1438z" />
<glyph unicode="W" horiz-adv-x="2148" d="M86 1434h205l391 -914l391 914l373 -914l393 914h223l-616 -1436l-373 932l-391 -932z" />
<glyph unicode="X" horiz-adv-x="1263" d="M104 0l416 719l-397 721h248l282 -512l267 512h245l-397 -721l416 -719h-228l-303 510l-303 -510h-246z" />
<glyph unicode="Y" horiz-adv-x="1329" d="M86 1438h225l334 -617l356 617h224l-467 -824v-614h-207v614z" />
<glyph unicode="Z" horiz-adv-x="1245" d="M86 -2l705 1245h-705v187h1059l-705 -1246h705v-186h-1059z" />
<glyph unicode="[" horiz-adv-x="499" d="M84 6v1426v174h174h211v-174h-211v-1426h211v-174h-211h-174v174z" />
<glyph unicode="\" horiz-adv-x="1290" d="M102 1434h228l858 -1436h-238z" />
<glyph unicode="]" horiz-adv-x="618" d="M100 12h213v1440h-213v174h213h179v-174v-1440v-178h-179h-213v178z" />
<glyph unicode="^" horiz-adv-x="1191" d="M113 612l376 645l109 177l102 -177l381 -645h-204l-279 469l-285 -469h-200z" />
<glyph unicode="_" horiz-adv-x="1347" d="M113 -2v180h1101v-180h-1101z" />
<glyph unicode="`" horiz-adv-x="569" d="M68 1323l75 166l344 -156l-79 -170z" />
<glyph unicode="a" horiz-adv-x="1155" d="M82 510q0 137 66 253.5t179 184.5t246 68q178 0 312 -115v125h186v-1026h-186v115q-134 -115 -312 -115q-133 0 -246 67.5t-179 185t-66 257.5zM260 510q0 -134 92 -229t221 -95q118 0 206.5 80t105.5 199v86q-17 119 -105.5 198.5t-206.5 79.5q-129 0 -221 -94t-92 -225 z" />
<glyph unicode="b" horiz-adv-x="1150" d="M76 2v1534h184v-621q143 117 315 117q209 0 355.5 -149.5t146.5 -364.5t-146.5 -365.5t-355.5 -150.5q-172 0 -315 117v-117h-184zM260 477q17 -123 106 -205t209 -82q131 0 225.5 96t94.5 232q0 135 -94.5 230.5t-225.5 95.5q-120 0 -209 -82t-106 -205v-80z" />
<glyph unicode="c" horiz-adv-x="948" d="M59 514q0 139 68 256t186 184.5t258 67.5q158 0 291 -92l21 -10l-86 -177l-29 21q-82 70 -197 70q-133 0 -227 -94.5t-94 -225.5q0 -134 94 -227.5t227 -93.5q114 0 203 73l23 23l86 -183l-21 -8q-134 -96 -291 -96q-140 0 -258 68t-186 186t-68 258z" />
<glyph unicode="d" horiz-adv-x="1136" d="M63 518q0 139 67 256.5t181.5 185.5t249.5 68q181 0 313 -113v621h185v-1534h-185v119q-139 -119 -313 -119q-135 0 -249.5 69.5t-181.5 188.5t-67 258zM246 518q0 -135 92 -230t223 -95q123 0 212 81t101 201v86q-12 121 -101.5 202t-211.5 81q-130 0 -222.5 -95.5 t-92.5 -230.5z" />
<glyph unicode="e" horiz-adv-x="1138" d="M61 510q0 141 68 260t183 187.5t249 68.5q209 0 356.5 -150.5t147.5 -365.5q0 -54 -8 -90h-21h-168h-610q28 -105 112 -171.5t191 -66.5q99 0 172 54h254q-67 -111 -179.5 -175.5t-246.5 -64.5t-249 68t-183 186.5t-68 259.5zM258 602h610q-28 103 -114 170.5t-193 67.5 t-190 -66.5t-113 -171.5z" />
<glyph unicode="f" horiz-adv-x="778" d="M43 840v184h154v2q0 144 70 260.5t188.5 181t261.5 64.5v-193q-140 0 -239 -88.5t-99 -226.5h340v-184h-340l2 -842h-182l-2 842h-154z" />
<glyph unicode="g" horiz-adv-x="1138" d="M63 514q0 138 67 255t181.5 185t249.5 68q176 0 313 -115v115h193v-1010q0 -121 -52 -227t-141 -176q-141 -109 -305 -109q-127 0 -234.5 61t-178.5 167l110 190q31 -101 115 -166t188 -65q108 0 192.5 67t112.5 170v174v19q-3 0 -4 -1t-4 -1q-129 -113 -305 -113 q-159 0 -295 98q-72 56 -133 152q-70 130 -70 262zM244 514q0 -49 16 -102q36 -99 105 -154q83 -68 196 -68q114 0 201 74q65 57 102 158q4 24 10 135q-18 120 -105.5 201.5t-207.5 81.5q-132 0 -224.5 -95.5t-92.5 -230.5zM266 -76h4l-4 -6v6z" />
<glyph unicode="h" horiz-adv-x="1099" d="M10 4v1532h191v-637q133 107 288 107q184 0 320 -136t156 -333q0 -60 -4 -535h-183v582q-30 104 -108 168.5t-181 64.5q-100 0 -178 -64t-110 -165l-2 -586h-181z" />
<glyph unicode="i" horiz-adv-x="303" d="M53 1323q0 39 28.5 67.5t68.5 28.5q38 0 67 -29t29 -67q0 -39 -28.5 -67.5t-67.5 -28.5q-40 0 -68.5 28t-28.5 68zM59 2v1022h185v-1022h-185z" />
<glyph unicode="j" horiz-adv-x="667" d="M82 -305q125 0 216 83.5t91 188.5v1055h205v-1055q-19 -140 -93 -246.5t-182.5 -164.5t-236.5 -66v205zM389 1329q0 42 30.5 72.5t72.5 30.5q41 0 71.5 -31t30.5 -72q0 -42 -30 -72t-72 -30q-43 0 -73 29.5t-30 72.5z" />
<glyph unicode="k" horiz-adv-x="1073" d="M92 2v1542h195v-1120l352 629h227l-245 -455l344 -596h-224l-247 422l-224 -422h17h-195z" />
<glyph unicode="l" horiz-adv-x="385" d="M100 0v1534h189v-1534h-189z" />
<glyph unicode="m" horiz-adv-x="1875" d="M80 0v1026h188v-102q124 102 287 102q114 0 214.5 -58t168.5 -157q68 99 170.5 157t222.5 58q127 0 233.5 -68t174.5 -182q56 -88 73 -229l-2 -543h-184v594q-33 105 -112.5 169t-182.5 64q-108 0 -190 -66.5t-111 -176.5v-584h-188v12l6 582q-31 105 -110.5 169 t-182.5 64q-98 0 -175 -54.5t-112 -147.5v-629h-188z" />
<glyph unicode="n" horiz-adv-x="1107" d="M92 0v1024h187v-98q133 98 280 98q189 0 326.5 -139t154.5 -338v-545h-186v596q-29 104 -110.5 168.5t-184.5 64.5q-97 0 -170.5 -55t-109.5 -149v-627h-187z" />
<glyph unicode="o" horiz-adv-x="1116" d="M61 512q0 139 67 256.5t181.5 185.5t249.5 68q134 0 248 -68t181 -185.5t67 -256.5q0 -140 -67 -257.5t-181 -185t-248 -67.5q-135 0 -249.5 67.5t-181.5 185t-67 257.5zM242 512q0 -134 92.5 -229t224.5 -95q130 0 222.5 95t92.5 229t-92.5 229t-222.5 95 q-132 0 -224.5 -95t-92.5 -229z" />
<glyph unicode="p" horiz-adv-x="1153" d="M92 -508v1532h184v-115q141 115 318 115q134 0 248 -69t181 -187.5t67 -257.5q0 -140 -67 -258t-181 -186t-248 -68q-177 0 -318 115v-621h-184zM276 469q17 -123 106.5 -204t211.5 -81q130 0 222.5 96t92.5 230q0 135 -92.5 231.5t-222.5 96.5q-121 0 -210.5 -82.5 t-107.5 -202.5v-84z" />
<glyph unicode="q" horiz-adv-x="1157" d="M59 512q0 140 68 259.5t184.5 189t253.5 69.5q179 0 318 -117v117h190v-1548h-190v629q-139 -117 -318 -117q-137 0 -253.5 69t-184.5 188.5t-68 260.5zM242 512q0 -136 95.5 -233t227.5 -97q122 0 214 82.5t104 204.5v86q-12 119 -104.5 203t-213.5 84 q-132 0 -227.5 -97t-95.5 -233z" />
<glyph unicode="r" horiz-adv-x="647" d="M70 0v1026h184v-127q143 117 317 117v-180q-130 0 -217.5 -93.5t-99.5 -228.5v-514h-184z" />
<glyph unicode="s" horiz-adv-x="813" d="M68 166l86 147l22 -34q66 -104 250 -107h4q63 0 105.5 40.5t42.5 100.5q0 55 -35.5 86t-116.5 43q-62 2 -122.5 21t-112 53t-83.5 89.5t-32 123.5q0 123 85 211t204 88h20q78 0 153.5 -33.5t118.5 -87.5l13 -14l-92 -164l-25 29q-73 85 -168 88q-55 0 -93 -30t-38 -87 q0 -19 6 -34t23 -32t56 -27.5t97 -12.5q143 -17 228.5 -101.5t85.5 -208.5q0 -130 -93 -220.5t-227 -90.5h-41q-94 0 -179 41.5t-132 110.5z" />
<glyph unicode="t" horiz-adv-x="870" d="M66 831v195h278v510h191v-510h268v-195h-268v-831h-191v831h-278z" />
<glyph unicode="u" horiz-adv-x="1128" d="M82 479v96v447h186v-78v-319v-197q29 -104 110.5 -168.5t184.5 -64.5t183.5 64.5t111.5 168.5v594h2h162h10v-1020h-174v109q-135 -109 -295 -109q-126 0 -235 66.5t-176 179.5q-61 107 -70 231z" />
<glyph unicode="v" horiz-adv-x="1040" d="M72 1024h196l246 -559l246 559h192l-420 -975l-18 -51v2l-2 -2l-35 82z" />
<glyph unicode="w" horiz-adv-x="1452" d="M37 1022h178l246 -584l260 590l258 -590l246 584h176l-408 -983l-14 -39v2v-2l-31 66l-229 557l-232 -562l-24 -61l-2 2v-2l-27 66z" />
<glyph unicode="x" horiz-adv-x="948" d="M76 -2l176 301l121 215l-289 506h205l182 -326l182 326h207l-289 -506l123 -215l176 -301h-208v12l-191 332l-190 -332v-12h-15h-190z" />
<glyph unicode="y" horiz-adv-x="1101" d="M102 1010h195l250 -566l250 566h194l-342 -797l-86 -201l-16 -39l-209 -489h-205l311 727z" />
<glyph unicode="z" horiz-adv-x="894" d="M47 0l178 309l295 527h-457v184h783l-481 -840h462v-180h-780z" />
<glyph unicode="{" horiz-adv-x="790" d="M78 690v2v152v4q102 0 174 78t72 190q0 177 113.5 301.5t273.5 124.5v-141q-100 0 -173 -85.5t-73 -199.5q0 -105 -45 -195.5t-121 -152.5q76 -59 121 -150.5t45 -197.5q0 -114 73 -199.5t173 -85.5v-139q-160 0 -273.5 124.5t-113.5 299.5q0 110 -72.5 190t-173.5 80z " />
<glyph unicode="|" horiz-adv-x="317" d="M86 -2v1538h141v-1538h-141z" />
<glyph unicode="}" horiz-adv-x="806" d="M78 -4v139q100 0 173 85.5t73 199.5q0 106 44.5 197.5t120.5 150.5q-76 62 -120.5 152.5t-44.5 195.5q0 114 -73 199.5t-173 85.5v141q160 0 273.5 -124.5t113.5 -301.5q0 -112 72 -190t174 -78v-4v-152v-2q-101 0 -173.5 -80t-72.5 -190q0 -175 -113.5 -299.5 t-273.5 -124.5z" />
<glyph unicode="~" horiz-adv-x="1011" d="M86 659l6 7q95 100 232 100q114 0 202 -70l13 -8l14 -14q59 -62 139 -62q78 0 137 62l5 6l98 -96l-6 -6q-100 -103 -234 -103q-107 0 -200 70l-15 14l-12 10q-57 60 -141 60q-82 0 -136 -60l-6 -6z" />
<glyph unicode="&#xa2;" horiz-adv-x="948" d="M49 510q0 175 107 313t268 183v178h190v-160q125 -11 242 -94l25 -12l-86 -179l-31 23q-76 56 -150 69h-51q-77 0 -139 -26q-83 -39 -133.5 -118.5t-50.5 -176.5q0 -96 50 -173t134 -116q65 -35 139 -35q40 0 51 4q88 18 158 70l23 23l79 -183l-18 -14q-97 -69 -242 -92 v-178h-190v196q-163 51 -269 186.5t-106 311.5z" />
<glyph unicode="&#xa3;" horiz-adv-x="1294" d="M74 127l4 4q96 103 221 127v360h-137v162h137v193q0 191 130 327t314 136h7q123 0 228.5 -61t167.5 -165t62 -225h-172q0 119 -82.5 201t-203.5 82q-123 0 -206 -85t-83 -210h-6v-193h295v-162h-295v-350q125 -24 211 -88l14 -18l16 -15q87 -81 189 -81q106 0 184 81 l8 11l131 -131l-8 -11q-129 -135 -315 -135q-143 0 -267 92l-22 19l-14 16q-84 78 -189 78q-109 0 -184 -78l-8 -12z" />
<glyph unicode="&#xa5;" horiz-adv-x="1329" d="M96 1434h221l347 -611l333 611h228l-432 -768h315v-113h-350l4 -127h346v-113h-346v-313h-199v313h-350v113h350v127h-350v113h319z" />
<glyph unicode="&#xa8;" horiz-adv-x="817" d="M86 1450q0 44 30.5 75t76.5 31q41 0 72.5 -31.5t31.5 -74.5q0 -44 -31 -74t-73 -30q-47 0 -77 29.5t-30 74.5zM516 1450q0 43 32 74.5t75 31.5q44 0 74 -31.5t30 -74.5q0 -44 -30 -74t-74 -30q-43 0 -75 30t-32 74z" />
<glyph unicode="&#xad;" horiz-adv-x="851" d="M76 522v180h686v-180h-686z" />
<glyph unicode="&#xb4;" horiz-adv-x="575" d="M68 1333l344 156l75 -166l-340 -160z" />
<glyph unicode="&#xbf;" horiz-adv-x="983" d="M41 451q0 74 25 151l8 19q29 77 65 118l254 238v113h195v-46l-2 -126l-29 -27l-287 -275l-12 -14q-41 -65 -41 -151q0 -113 78 -193t188 -80q107 0 186 80.5t79 192.5v10h176v-10q0 -122 -59 -226.5t-160.5 -165.5t-221.5 -61t-222 61t-161 165.5t-59 226.5zM362 1311 q0 52 34 86.5t87 34.5q50 0 84.5 -35t34.5 -86q0 -50 -35 -85.5t-84 -35.5q-53 0 -87 35t-34 86z" />
<glyph unicode="&#xc0;" horiz-adv-x="1425" d="M92 0l619 1434l620 -1434h-223l-94 223h-604l-101 -223h-217zM496 410h432l-217 497zM502 1733l76 165l344 -155l-80 -170z" />
<glyph unicode="&#xc1;" horiz-adv-x="1425" d="M92 0l619 1434l620 -1434h-223l-94 223h-604l-101 -223h-217zM496 410h432l-217 497zM502 1743l344 155l76 -165l-340 -160z" />
<glyph unicode="&#xc2;" horiz-adv-x="1425" d="M92 0l619 1434l620 -1434h-223l-94 223h-604l-101 -223h-217zM371 1808l340 158v-2l4 2l340 -158l-78 -168l-266 125l-267 -125zM496 410h432l-217 497z" />
<glyph unicode="&#xc3;" horiz-adv-x="1425" d="M92 0l619 1434l620 -1434h-223l-94 223h-604l-101 -223h-217zM289 1835l6 6q96 101 231 101q115 0 203 -70l12 -8l15 -15q58 -61 139 -61q79 0 137 61l4 6l99 -96l-7 -6q-99 -102 -233 -102q-110 0 -201 69l-14 15l-12 10q-56 59 -142 59q-82 0 -135 -59l-6 -6zM496 410 h432l-217 497z" />
<glyph unicode="&#xc4;" horiz-adv-x="1425" d="M92 0l619 1434l620 -1434h-223l-94 223h-604l-101 -223h-217zM391 1860q0 44 30.5 75t76.5 31q41 0 72.5 -31.5t31.5 -74.5q0 -44 -31 -74.5t-73 -30.5q-47 0 -77 30t-30 75zM496 410h432l-217 497zM821 1860q0 43 32 74.5t75 31.5q44 0 74 -31.5t30 -74.5 q0 -44 -30 -74.5t-74 -30.5q-43 0 -75 30.5t-32 74.5z" />
<glyph unicode="&#xc7;" horiz-adv-x="1345" d="M100 719q0 145 56 276.5t151 226t226 150t276 55.5q228 0 403 -124l-86 -187q-138 113 -317 113q-137 0 -253.5 -68t-184.5 -185.5t-68 -256.5q0 -137 68 -253t184.5 -183.5t253.5 -67.5q180 0 321 115l87 -189q-188 -131 -408 -131q-11 0 -35.5 3t-38.5 3l-2 -26 q62 -2 106 -48t44 -112t-46 -110t-112 -44q-51 0 -90 29l-21 14l48 99l32 -27q14 -14 31 -14q23 0 39 15t16 38t-16 39t-39 16q-14 0 -31 -10l-39 -29l-41 97v4l21 86q-233 62 -384 252t-151 434z" />
<glyph unicode="&#xc8;" horiz-adv-x="1064" d="M104 0v1434h844v-193h-647v-440h514v-191h-514v-420h657v-190h-854zM322 1733l75 165l344 -155l-79 -170z" />
<glyph unicode="&#xc9;" horiz-adv-x="1064" d="M104 0v1434h844v-193h-647v-440h514v-191h-514v-420h657v-190h-854zM322 1743l344 155l75 -165l-340 -160z" />
<glyph unicode="&#xca;" horiz-adv-x="1064" d="M104 0v1434h844v-193h-647v-440h514v-191h-514v-420h657v-190h-854zM190 1808l340 158v-2l5 2l339 -158l-77 -168l-267 125l-266 -125z" />
<glyph unicode="&#xcb;" horiz-adv-x="1064" d="M104 0v1434h844v-193h-647v-440h514v-191h-514v-420h657v-190h-854zM211 1860q0 44 30 75t76 31q41 0 73 -32t32 -74q0 -44 -31.5 -74.5t-73.5 -30.5q-47 0 -76.5 30t-29.5 75zM641 1860q0 43 32 74.5t75 31.5q44 0 74 -31.5t30 -74.5q0 -44 -30 -74.5t-74 -30.5 q-43 0 -75 30.5t-32 74.5z" />
<glyph unicode="&#xcc;" horiz-adv-x="350" d="M-33 1733l76 165l344 -155l-80 -170zM80 -2v1436h199v-1436h-199z" />
<glyph unicode="&#xcd;" horiz-adv-x="350" d="M-10 1743l344 155l76 -165l-340 -160zM80 -2v1436h199v-1436h-199z" />
<glyph unicode="&#xce;" horiz-adv-x="350" d="M-164 1808l340 158v-2l4 2l340 -158l-78 -168l-266 125l-266 -125zM80 -2v1436h199v-1436h-199z" />
<glyph unicode="&#xcf;" horiz-adv-x="350" d="M-143 1860q0 44 30 75t76 31q41 0 73 -32t32 -74q0 -44 -31.5 -74.5t-73.5 -30.5q-47 0 -76.5 30t-29.5 75zM80 -2v1436h199v-1436h-199zM287 1860q0 43 31.5 74.5t74.5 31.5q44 0 74.5 -31.5t30.5 -74.5q0 -44 -30.5 -74.5t-74.5 -30.5q-43 0 -74.5 30.5t-31.5 74.5z " />
<glyph unicode="&#xd1;" horiz-adv-x="1226" d="M94 0v1434h228l630 -1110v1110h193v-1434h-230l-628 1083v-1083h-193zM190 1835l7 6q96 101 231 101q115 0 203 -70l12 -8l14 -15q58 -61 140 -61q79 0 137 61l4 6l98 -96l-6 -6q-99 -102 -233 -102q-110 0 -201 69l-14 15l-13 10q-56 59 -141 59q-82 0 -135 -59l-6 -6z " />
<glyph unicode="&#xd2;" d="M86 721q0 145 53.5 277t144.5 228t217 153t265 57q195 0 355.5 -96.5t251.5 -260.5t91 -358q0 -195 -91 -360t-251.5 -262t-355.5 -97q-111 0 -215 36.5t-187.5 103t-146.5 155t-97 198t-34 226.5zM283 721q0 -142 64.5 -262.5t175.5 -190t243 -69.5q141 0 256.5 70 t180.5 189.5t65 262.5q0 141 -65 259t-180.5 187.5t-256.5 69.5q-132 0 -243 -69t-175.5 -188t-64.5 -259zM567 1733l76 165l344 -155l-80 -170z" />
<glyph unicode="&#xd3;" d="M86 721q0 145 53.5 277t144.5 228t217 153t265 57q195 0 355.5 -96.5t251.5 -260.5t91 -358q0 -195 -91 -360t-251.5 -262t-355.5 -97q-111 0 -215 36.5t-187.5 103t-146.5 155t-97 198t-34 226.5zM283 721q0 -142 64.5 -262.5t175.5 -190t243 -69.5q141 0 256.5 70 t180.5 189.5t65 262.5q0 141 -65 259t-180.5 187.5t-256.5 69.5q-132 0 -243 -69t-175.5 -188t-64.5 -259zM567 1743l344 155l76 -165l-340 -160z" />
<glyph unicode="&#xd4;" d="M86 721q0 145 53.5 277t144.5 228t217 153t265 57q195 0 355.5 -96.5t251.5 -260.5t91 -358q0 -195 -91 -360t-251.5 -262t-355.5 -97q-111 0 -215 36.5t-187.5 103t-146.5 155t-97 198t-34 226.5zM283 721q0 -142 64.5 -262.5t175.5 -190t243 -69.5q141 0 256.5 70 t180.5 189.5t65 262.5q0 141 -65 259t-180.5 187.5t-256.5 69.5q-132 0 -243 -69t-175.5 -188t-64.5 -259zM436 1808l340 158v-2l4 2l340 -158l-78 -168l-266 125l-266 -125z" />
<glyph unicode="&#xd5;" d="M86 721q0 145 53.5 277t144.5 228t217 153t265 57q195 0 355.5 -96.5t251.5 -260.5t91 -358q0 -195 -91 -360t-251.5 -262t-355.5 -97q-111 0 -215 36.5t-187.5 103t-146.5 155t-97 198t-34 226.5zM283 721q0 -142 64.5 -262.5t175.5 -190t243 -69.5q141 0 256.5 70 t180.5 189.5t65 262.5q0 141 -65 259t-180.5 187.5t-256.5 69.5q-132 0 -243 -69t-175.5 -188t-64.5 -259zM354 1835l6 6q96 101 232 101q115 0 203 -70l12 -8l14 -15q58 -61 140 -61q79 0 137 61l4 6l98 -96l-6 -6q-99 -102 -233 -102q-110 0 -201 69l-15 15l-12 10 q-56 59 -141 59q-82 0 -135 -59l-6 -6z" />
<glyph unicode="&#xd6;" d="M86 721q0 145 53.5 277t144.5 228t217 153t265 57q195 0 355.5 -96.5t251.5 -260.5t91 -358q0 -195 -91 -360t-251.5 -262t-355.5 -97q-111 0 -215 36.5t-187.5 103t-146.5 155t-97 198t-34 226.5zM283 721q0 -142 64.5 -262.5t175.5 -190t243 -69.5q141 0 256.5 70 t180.5 189.5t65 262.5q0 141 -65 259t-180.5 187.5t-256.5 69.5q-132 0 -243 -69t-175.5 -188t-64.5 -259zM457 1860q0 44 30 75t76 31q41 0 73 -32t32 -74q0 -44 -31.5 -74.5t-73.5 -30.5q-47 0 -76.5 30t-29.5 75zM887 1860q0 43 31.5 74.5t74.5 31.5q44 0 74.5 -31.5 t30.5 -74.5q0 -44 -30.5 -74.5t-74.5 -30.5q-43 0 -74.5 30.5t-31.5 74.5z" />
<glyph unicode="&#xd9;" horiz-adv-x="1245" d="M104 504v114v818h197v-693v-229q0 -130 92.5 -222.5t222.5 -92.5q131 0 223.5 92.5t92.5 222.5v922h198v-693v-239q-3 -138 -71.5 -253t-186 -182t-256.5 -67q-133 0 -245.5 61.5t-182.5 167.5q-9 14 -23 38t-37.5 95.5t-23.5 139.5zM412 1733l75 165l344 -155l-79 -170z " />
<glyph unicode="&#xda;" horiz-adv-x="1245" d="M104 504v114v818h197v-693v-229q0 -130 92.5 -222.5t222.5 -92.5q131 0 223.5 92.5t92.5 222.5v922h198v-693v-239q-3 -138 -71.5 -253t-186 -182t-256.5 -67q-133 0 -245.5 61.5t-182.5 167.5q-9 14 -23 38t-37.5 95.5t-23.5 139.5zM412 1743l344 155l75 -165l-339 -160 z" />
<glyph unicode="&#xdb;" horiz-adv-x="1245" d="M104 504v114v818h197v-693v-229q0 -130 92.5 -222.5t222.5 -92.5q131 0 223.5 92.5t92.5 222.5v922h198v-693v-239q-3 -138 -71.5 -253t-186 -182t-256.5 -67q-133 0 -245.5 61.5t-182.5 167.5q-9 14 -23 38t-37.5 95.5t-23.5 139.5zM281 1808l340 158v-2l4 2l340 -158 l-78 -168l-266 125l-267 -125z" />
<glyph unicode="&#xdc;" horiz-adv-x="1245" d="M104 504v114v818h197v-693v-229q0 -130 92.5 -222.5t222.5 -92.5q131 0 223.5 92.5t92.5 222.5v922h198v-693v-239q-3 -138 -71.5 -253t-186 -182t-256.5 -67q-133 0 -245.5 61.5t-182.5 167.5q-9 14 -23 38t-37.5 95.5t-23.5 139.5zM301 1860q0 44 30.5 75t76.5 31 q41 0 72.5 -31.5t31.5 -74.5q0 -44 -31 -74.5t-73 -30.5q-47 0 -77 30t-30 75zM731 1860q0 43 32 74.5t75 31.5q44 0 74 -31.5t30 -74.5q0 -44 -30 -74.5t-74 -30.5q-43 0 -75 30.5t-32 74.5z" />
<glyph unicode="&#xdd;" horiz-adv-x="1329" d="M86 1438h225l334 -617l356 617h224l-467 -824v-614h-207v614zM477 1743l344 155l76 -165l-340 -160z" />
<glyph unicode="&#xe0;" horiz-adv-x="1155" d="M82 510q0 137 66 253.5t179 184.5t246 68q178 0 312 -115v125h192v-1026h-192v115q-134 -115 -312 -115q-133 0 -246 67.5t-179 185t-66 257.5zM260 510q0 -134 92 -229t221 -95q118 0 206.5 80t105.5 199v86q-17 119 -105.5 198.5t-206.5 79.5q-129 0 -221 -94t-92 -225 zM367 1323l75 166l344 -156l-79 -170z" />
<glyph unicode="&#xe1;" horiz-adv-x="1155" d="M82 510q0 137 66 253.5t179 184.5t246 68q178 0 312 -115v125h192v-1026h-192v115q-134 -115 -312 -115q-133 0 -246 67.5t-179 185t-66 257.5zM260 510q0 -134 92 -229t221 -95q118 0 206.5 80t105.5 199v86q-17 119 -105.5 198.5t-206.5 79.5q-129 0 -221 -94t-92 -225 zM367 1333l344 156l75 -166l-340 -160z" />
<glyph unicode="&#xe2;" horiz-adv-x="1155" d="M82 510q0 137 66 253.5t179 184.5t246 68q178 0 312 -115v125h192v-1026h-192v115q-134 -115 -312 -115q-133 0 -246 67.5t-179 185t-66 257.5zM236 1399l339 157v-2l5 2l340 -157l-78 -168l-267 125l-266 -125zM260 510q0 -134 92 -229t221 -95q118 0 206.5 80 t105.5 199v86q-17 119 -105.5 198.5t-206.5 79.5q-129 0 -221 -94t-92 -225z" />
<glyph unicode="&#xe3;" horiz-adv-x="1155" d="M82 510q0 137 66 253.5t179 184.5t246 68q178 0 312 -115v125h192v-1026h-192v115q-134 -115 -312 -115q-133 0 -246 67.5t-179 185t-66 257.5zM154 1425l6 7q95 100 231 100q115 0 203 -70l12 -8l15 -14q59 -62 139 -62q78 0 137 62l4 6l98 -96l-6 -7 q-99 -102 -233 -102q-108 0 -201 70l-14 14l-13 10q-57 60 -141 60q-81 0 -135 -60l-6 -6zM260 510q0 -134 92 -229t221 -95q118 0 206.5 80t105.5 199v86q-17 119 -105.5 198.5t-206.5 79.5q-129 0 -221 -94t-92 -225z" />
<glyph unicode="&#xe4;" horiz-adv-x="1155" d="M82 510q0 137 66 253.5t179 184.5t246 68q178 0 312 -115v125h192v-1026h-192v115q-134 -115 -312 -115q-133 0 -246 67.5t-179 185t-66 257.5zM256 1450q0 44 30 75t76 31q42 0 73.5 -32t31.5 -74q0 -43 -31.5 -73.5t-73.5 -30.5q-47 0 -76.5 29.5t-29.5 74.5zM260 510 q0 -134 92 -229t221 -95q118 0 206.5 80t105.5 199v86q-17 119 -105.5 198.5t-206.5 79.5q-129 0 -221 -94t-92 -225zM686 1450q0 43 32 74.5t75 31.5q44 0 74 -31.5t30 -74.5q0 -44 -30 -74t-74 -30q-43 0 -75 30t-32 74z" />
<glyph unicode="&#xe7;" horiz-adv-x="948" d="M57 504q0 139 69 258t188 188.5t259 69.5q155 0 295 -94l21 -15l-84 -180l-27 25q-90 69 -205 69q-133 0 -227 -95t-94 -226q0 -135 94 -231.5t227 -96.5q114 0 207 74l25 22l84 -182l-17 -12q-118 -81 -270 -94l-6 -23q68 -5 113 -50.5t45 -111.5q0 -69 -47 -115 t-115 -46q-55 0 -94 26l-27 19l51 100l33 -27q25 -14 37 -14q23 0 38 16t15 41q0 23 -15 38.5t-38 15.5q-22 0 -37 -11l-33 -30l-51 102h6l19 78q-187 25 -313 173t-126 339z" />
<glyph unicode="&#xe8;" horiz-adv-x="1138" d="M61 510q0 141 68 260t183 187.5t249 68.5q209 0 356.5 -150.5t147.5 -365.5q0 -54 -8 -90h-21h-168h-610q28 -105 112 -171.5t191 -66.5q99 0 172 54h254q-67 -111 -179.5 -175.5t-246.5 -64.5t-249 68t-183 186.5t-68 259.5zM258 602h610q-28 103 -114 170.5t-193 67.5 t-190 -66.5t-113 -171.5zM358 1323l76 166l344 -156l-80 -170z" />
<glyph unicode="&#xe9;" horiz-adv-x="1138" d="M61 510q0 141 68 260t183 187.5t249 68.5q209 0 356.5 -150.5t147.5 -365.5q0 -54 -8 -90h-21h-168h-610q28 -105 112 -171.5t191 -66.5q99 0 172 54h254q-67 -111 -179.5 -175.5t-246.5 -64.5t-249 68t-183 186.5t-68 259.5zM258 602h610q-28 103 -114 170.5t-193 67.5 t-190 -66.5t-113 -171.5zM358 1333l344 156l76 -166l-340 -160z" />
<glyph unicode="&#xea;" horiz-adv-x="1138" d="M61 510q0 141 68 260t183 187.5t249 68.5q209 0 356.5 -150.5t147.5 -365.5q0 -54 -8 -90h-21h-168h-610q28 -105 112 -171.5t191 -66.5q99 0 172 54h254q-67 -111 -179.5 -175.5t-246.5 -64.5t-249 68t-183 186.5t-68 259.5zM227 1399l340 157v-2l4 2l340 -157l-77 -168 l-267 125l-266 -125zM258 602h610q-28 103 -114 170.5t-193 67.5t-190 -66.5t-113 -171.5z" />
<glyph unicode="&#xeb;" horiz-adv-x="1138" d="M61 510q0 141 68 260t183 187.5t249 68.5q209 0 356.5 -150.5t147.5 -365.5q0 -54 -8 -90h-21h-168h-610q28 -105 112 -171.5t191 -66.5q99 0 172 54h254q-67 -111 -179.5 -175.5t-246.5 -64.5t-249 68t-183 186.5t-68 259.5zM248 1450q0 44 30 75t76 31q42 0 73.5 -32 t31.5 -74q0 -43 -31.5 -73.5t-73.5 -30.5q-47 0 -76.5 29.5t-29.5 74.5zM258 602h610q-28 103 -114 170.5t-193 67.5t-190 -66.5t-113 -171.5zM678 1450q0 43 31.5 74.5t74.5 31.5q44 0 74.5 -31.5t30.5 -74.5q0 -44 -30.5 -74t-74.5 -30q-43 0 -74.5 30t-31.5 74z" />
<glyph unicode="&#xec;" horiz-adv-x="303" d="M-55 1323l75 166l345 -156l-80 -170zM76 2v1022h188v-1022h-188z" />
<glyph unicode="&#xed;" horiz-adv-x="303" d="M-55 1333l344 156l76 -166l-340 -160zM76 2v1022h188v-1022h-188z" />
<glyph unicode="&#xee;" horiz-adv-x="303" d="M-188 1399l340 157v-2l4 2l340 -157l-78 -168l-266 125l-267 -125zM76 2v1022h188v-1022h-188z" />
<glyph unicode="&#xef;" horiz-adv-x="303" d="M-166 1450q0 44 30.5 75t76.5 31q41 0 72.5 -31.5t31.5 -74.5q0 -44 -31 -74t-73 -30q-47 0 -77 29.5t-30 74.5zM76 2v1022h188v-1022h-188zM264 1450q0 43 32 74.5t75 31.5q44 0 74 -31.5t30 -74.5q0 -44 -30 -74t-74 -30q-43 0 -75 30t-32 74z" />
<glyph unicode="&#xf1;" horiz-adv-x="1107" d="M74 0v1024h205v-98q133 98 280 98q189 0 326.5 -139t154.5 -338v-545h-186v80v516q-29 104 -110.5 168.5t-184.5 64.5q-97 0 -170.5 -55t-109.5 -149v-627h-205zM131 1425l6 7q95 100 232 100q114 0 202 -70l13 -8l14 -14q59 -62 139 -62q78 0 137 62l5 6l98 -96l-6 -7 q-99 -102 -234 -102q-107 0 -200 70l-15 14l-12 10q-57 60 -141 60q-82 0 -136 -60l-6 -6z" />
<glyph unicode="&#xf2;" horiz-adv-x="1116" d="M61 512q0 139 67 256.5t181.5 185.5t249.5 68q134 0 248 -68t181 -185.5t67 -256.5q0 -140 -67 -257.5t-181 -185t-248 -67.5q-135 0 -249.5 67.5t-181.5 185t-67 257.5zM242 512q0 -134 92.5 -229t224.5 -95q130 0 222.5 95t92.5 229t-92.5 229t-222.5 95 q-132 0 -224.5 -95t-92.5 -229zM348 1323l76 166l344 -156l-80 -170z" />
<glyph unicode="&#xf3;" horiz-adv-x="1116" d="M61 512q0 139 67 256.5t181.5 185.5t249.5 68q134 0 248 -68t181 -185.5t67 -256.5q0 -140 -67 -257.5t-181 -185t-248 -67.5q-135 0 -249.5 67.5t-181.5 185t-67 257.5zM242 512q0 -134 92.5 -229t224.5 -95q130 0 222.5 95t92.5 229t-92.5 229t-222.5 95 q-132 0 -224.5 -95t-92.5 -229zM348 1333l344 156l76 -166l-340 -160z" />
<glyph unicode="&#xf4;" horiz-adv-x="1116" d="M61 512q0 139 67 256.5t181.5 185.5t249.5 68q134 0 248 -68t181 -185.5t67 -256.5q0 -140 -67 -257.5t-181 -185t-248 -67.5q-135 0 -249.5 67.5t-181.5 185t-67 257.5zM215 1399l340 157v-2l4 2l340 -157l-78 -168l-266 125l-266 -125zM242 512q0 -134 92.5 -229 t224.5 -95q130 0 222.5 95t92.5 229t-92.5 229t-222.5 95q-132 0 -224.5 -95t-92.5 -229z" />
<glyph unicode="&#xf5;" horiz-adv-x="1116" d="M61 512q0 139 67 256.5t181.5 185.5t249.5 68q134 0 248 -68t181 -185.5t67 -256.5q0 -140 -67 -257.5t-181 -185t-248 -67.5q-135 0 -249.5 67.5t-181.5 185t-67 257.5zM135 1425l6 7q95 100 232 100q114 0 202 -70l13 -8l14 -14q59 -62 139 -62q79 0 138 62l4 6l98 -96 l-6 -7q-99 -102 -234 -102q-107 0 -200 70l-15 14l-12 10q-57 60 -141 60q-81 0 -135 -60l-7 -6zM242 512q0 -134 92.5 -229t224.5 -95q130 0 222.5 95t92.5 229t-92.5 229t-222.5 95q-132 0 -224.5 -95t-92.5 -229z" />
<glyph unicode="&#xf6;" horiz-adv-x="1116" d="M61 512q0 139 67 256.5t181.5 185.5t249.5 68q134 0 248 -68t181 -185.5t67 -256.5q0 -140 -67 -257.5t-181 -185t-248 -67.5q-135 0 -249.5 67.5t-181.5 185t-67 257.5zM238 1450q0 44 30 75t76 31q42 0 73.5 -32t31.5 -74q0 -43 -31.5 -73.5t-73.5 -30.5 q-47 0 -76.5 29.5t-29.5 74.5zM242 512q0 -134 92.5 -229t224.5 -95q130 0 222.5 95t92.5 229t-92.5 229t-222.5 95q-132 0 -224.5 -95t-92.5 -229zM668 1450q0 43 31.5 74.5t74.5 31.5q44 0 74.5 -31.5t30.5 -74.5q0 -44 -30.5 -74t-74.5 -30q-43 0 -74.5 30t-31.5 74z" />
<glyph unicode="&#xf9;" horiz-adv-x="1128" d="M80 528q0 31 2 47v447h186v-78v-319v-197q29 -104 110.5 -168.5t184.5 -64.5t183.5 64.5t111.5 168.5v594h2h170h10v-1020h-182v109q-135 -109 -295 -109q-126 0 -235 66.5t-176 179.5q-61 107 -70 231q-2 16 -2 49zM354 1323l76 166l344 -156l-80 -170z" />
<glyph unicode="&#xfa;" horiz-adv-x="1128" d="M80 528q0 31 2 47v447h186v-78v-319v-197q29 -104 110.5 -168.5t184.5 -64.5t183.5 64.5t111.5 168.5v594h2h170h10v-1020h-182v109q-135 -109 -295 -109q-126 0 -235 66.5t-176 179.5q-61 107 -70 231q-2 16 -2 49zM354 1333l344 156l76 -166l-340 -160z" />
<glyph unicode="&#xfb;" horiz-adv-x="1128" d="M80 528q0 31 2 47v447h186v-78v-319v-197q29 -104 110.5 -168.5t184.5 -64.5t183.5 64.5t111.5 168.5v594h2h170h10v-1020h-182v109q-135 -109 -295 -109q-126 0 -235 66.5t-176 179.5q-61 107 -70 231q-2 16 -2 49zM221 1399l340 157v-2l4 2l340 -157l-78 -168l-266 125 l-266 -125z" />
<glyph unicode="&#xfc;" horiz-adv-x="1128" d="M80 528q0 31 2 47v447h186v-78v-319v-197q29 -104 110.5 -168.5t184.5 -64.5t183.5 64.5t111.5 168.5v594h2h170h10v-1020h-182v109q-135 -109 -295 -109q-126 0 -235 66.5t-176 179.5q-61 107 -70 231q-2 16 -2 49zM244 1450q0 44 30 75t76 31q42 0 73.5 -32t31.5 -74 q0 -43 -31.5 -73.5t-73.5 -30.5q-47 0 -76.5 29.5t-29.5 74.5zM674 1450q0 43 31.5 74.5t74.5 31.5q44 0 74.5 -31.5t30.5 -74.5q0 -44 -30.5 -74t-74.5 -30q-43 0 -74.5 30t-31.5 74z" />
<glyph unicode="&#xfd;" horiz-adv-x="1101" d="M102 1010h195l250 -566l250 566h194l-342 -797l-86 -201l-16 -39l-209 -489h-205l311 727zM365 1333l344 156l75 -166l-340 -160z" />
<glyph unicode="&#xff;" horiz-adv-x="1101" d="M102 1010h195l250 -566l250 566h194l-342 -797l-86 -201l-16 -39l-209 -489h-205l311 727zM229 1450q0 44 30.5 75t76.5 31q41 0 72.5 -31.5t31.5 -74.5q0 -44 -31 -74t-73 -30q-47 0 -77 29.5t-30 74.5zM659 1450q0 43 32 74.5t75 31.5q44 0 74 -31.5t30 -74.5 q0 -44 -30 -74t-74 -30q-43 0 -75 30t-32 74z" />
<glyph unicode="&#x178;" horiz-adv-x="1329" d="M86 1438h225l334 -617l356 617h224l-467 -824v-614h-207v614zM332 1743q0 44 30 75t76 31q42 0 73.5 -31.5t31.5 -74.5q0 -44 -31.5 -74.5t-73.5 -30.5q-47 0 -76.5 30t-29.5 75zM762 1743q0 43 31.5 74.5t74.5 31.5q44 0 74.5 -31.5t30.5 -74.5q0 -44 -30.5 -74.5 t-74.5 -30.5q-43 0 -74.5 30.5t-31.5 74.5z" />
<glyph unicode="&#x2c6;" horiz-adv-x="839" d="M63 1399l340 157v-2l5 2l340 -157l-78 -168l-267 125l-266 -125z" />
<glyph unicode="&#x2dc;" horiz-adv-x="1009" d="M86 1425l6 7q95 100 232 100q114 0 202 -70l13 -8l14 -14q59 -62 139 -62q78 0 137 62l5 6l98 -96l-6 -7q-99 -102 -234 -102q-107 0 -200 70l-15 14l-12 10q-57 60 -141 60q-82 0 -136 -60l-6 -6z" />
<glyph unicode="&#x2000;" horiz-adv-x="983" />
<glyph unicode="&#x2001;" horiz-adv-x="1966" />
<glyph unicode="&#x2002;" horiz-adv-x="983" />
<glyph unicode="&#x2003;" horiz-adv-x="1966" />
<glyph unicode="&#x2004;" horiz-adv-x="655" />
<glyph unicode="&#x2005;" horiz-adv-x="491" />
<glyph unicode="&#x2006;" horiz-adv-x="327" />
<glyph unicode="&#x2007;" horiz-adv-x="327" />
<glyph unicode="&#x2008;" horiz-adv-x="245" />
<glyph unicode="&#x2009;" horiz-adv-x="393" />
<glyph unicode="&#x200a;" horiz-adv-x="109" />
<glyph unicode="&#x2010;" horiz-adv-x="851" d="M76 522v180h686v-180h-686z" />
<glyph unicode="&#x2011;" horiz-adv-x="851" d="M76 522v180h686v-180h-686z" />
<glyph unicode="&#x2012;" horiz-adv-x="851" d="M76 522v180h686v-180h-686z" />
<glyph unicode="&#x2013;" horiz-adv-x="1136" d="M113 522v180h913v-180h-913z" />
<glyph unicode="&#x2014;" horiz-adv-x="1302" d="M113 522v180h1101v-180h-1101z" />
<glyph unicode="&#x2018;" horiz-adv-x="462" d="M72 1479l116 67l187 -352l-117 -68z" />
<glyph unicode="&#x2019;" horiz-adv-x="454" d="M72 1194l186 352l117 -67l-187 -353z" />
<glyph unicode="&#x201a;" horiz-adv-x="487" d="M92 -139l187 352l116 -68l-186 -352z" />
<glyph unicode="&#x201c;" horiz-adv-x="673" d="M102 1384l117 68l187 -352l-117 -68zM270 1479l117 67l186 -352l-116 -68z" />
<glyph unicode="&#x201d;" horiz-adv-x="626" d="M84 1194l186 352l117 -67l-186 -353zM252 1100l186 352l117 -68l-186 -352z" />
<glyph unicode="&#x201e;" horiz-adv-x="1705" d="M6 -186l187 352l116 -68l-186 -352zM174 -281l186 353l117 -68l-186 -352z" />
<glyph unicode="&#x2022;" horiz-adv-x="563" d="M78 623q0 80 60.5 139t142.5 59q79 0 138.5 -59.5t59.5 -138.5q0 -82 -59 -142.5t-139 -60.5q-82 0 -142.5 60.5t-60.5 142.5z" />
<glyph unicode="&#x202f;" horiz-adv-x="393" />
<glyph unicode="&#x205f;" horiz-adv-x="491" />
<glyph unicode="&#x20ac;" horiz-adv-x="1603" d="M147 514v174h138q-4 27 -4 80q0 51 2 78h-136v174h177q78 226 274.5 368t445.5 142q239 0 437 -137l-97 -197q-149 117 -340 117q-156 0 -286.5 -80t-200.5 -213h596v-174h-653q-6 -40 -6 -78q0 -40 6 -80h653v-174h-596q72 -133 201.5 -212t285.5 -79q185 0 345 121 l92 -203q-207 -137 -437 -137q-247 0 -444 142t-276 368h-177z" />
<glyph unicode="&#x25fc;" horiz-adv-x="1024" d="M0 0v1024h1024v-1024h-1024z" />
</font>
</defs>
</svg>
